<svg xmlns="http://www.w3.org/2000/svg" width="352" height="600" viewBox="0 0 352 600" role="img" aria-labelledby="title desc"><title id="title">TowerSignal authenticated home</title><desc id="desc">Product view based on the live authenticated TowerSignal home screen with workspace cards.</desc><rect width="352" height="600" fill="#f5f7fa"/><g font-family="Arial,Helvetica,sans-serif"><g transform="translate(24 18)"><rect width="31" height="31" rx="9" fill="#15365f"/><text x="15.5" y="20" fill="#fff" text-anchor="middle" font-size="8" font-weight="800">TS</text><text x="42" y="21" fill="#173758" font-size="16" font-weight="800">TowerSignal</text></g><g transform="translate(14 67)" font-size="12" font-weight="700"><rect width="67" height="34" rx="8" fill="#eaf0f5"/><text x="33" y="22" fill="#173758" text-anchor="middle">Home</text><text x="91" y="22" fill="#6a7582">Prospect</text><text x="159" y="22" fill="#6a7582">Opportunities</text><text x="257" y="22" fill="#6a7582">Companies</text></g><rect x="14" y="119" width="324" height="51" rx="11" fill="#fff" stroke="#dce4ec"/><text x="79" y="150" fill="#5f6f7c" font-size="11" font-weight="700">My account</text><g transform="translate(14 185)"><rect width="324" height="106" rx="14" fill="#fff" stroke="#dce4ec"/><text x="19" y="31" fill="#6c7885" font-size="11" font-weight="700">Observed vendor companies</text><text x="19" y="63" fill="#173758" font-size="29" font-weight="800">431</text><text x="19" y="85" fill="#7b8793" font-size="10">Conservative company identities</text></g><g transform="translate(14 311)"><rect width="324" height="145" rx="15" fill="#fff" stroke="#dce4ec"/><text x="22" y="31" fill="#8090a0" font-size="9" font-weight="800">01</text><text x="22" y="72" fill="#173758" font-size="20" font-weight="800">Prospect</text><text x="22" y="99" fill="#6b7784" font-size="13" font-weight="700">Find accounts with actionable</text><text x="22" y="121" fill="#6b7784" font-size="13" font-weight="700">timing and evidence.</text></g><g transform="translate(14 474)"><rect width="324" height="145" rx="15" fill="#fff" stroke="#dce4ec"/><text x="22" y="31" fill="#8090a0" font-size="9" font-weight="800">02</text><text x="22" y="72" fill="#173758" font-size="20" font-weight="800">Monitor</text><text x="22" y="99" fill="#6b7784" font-size="13" font-weight="700">Review deterministic changes</text><text x="22" y="121" fill="#6b7784" font-size="13" font-weight="700">across the market.</text></g></g></svg>